<?xml version="1.0" encoding="UTF-8" standalone="no"?>
<!-- Generator: Adobe Illustrator 19.1.0, SVG Export Plug-In . SVG Version: 6.00 Build 0)  -->

<svg
   xmlns:dc="http://purl.org/dc/elements/1.1/"
   xmlns:cc="http://creativecommons.org/ns#"
   xmlns:rdf="http://www.w3.org/1999/02/22-rdf-syntax-ns#"
   xmlns:svg="http://www.w3.org/2000/svg"
   xmlns="http://www.w3.org/2000/svg"
   xmlns:sodipodi="http://sodipodi.sourceforge.net/DTD/sodipodi-0.dtd"
   xmlns:inkscape="http://www.inkscape.org/namespaces/inkscape"
   version="1.1"
   x="0px"
   y="0px"
   viewBox="0 0 84 29.9"
   style="enable-background:new 0 0 84 29.9;"
   xml:space="preserve"
   id="svg60"
   sodipodi:docname="logo-quiproquo.svg"
   inkscape:version="0.92.0 r"><metadata
     id="metadata66"><rdf:RDF><cc:Work
         rdf:about=""><dc:format>image/svg+xml</dc:format><dc:type
           rdf:resource="http://purl.org/dc/dcmitype/StillImage" /><dc:title /></cc:Work></rdf:RDF></metadata><defs
     id="defs64" /><sodipodi:namedview
     pagecolor="#ffffff"
     bordercolor="#666666"
     borderopacity="1"
     objecttolerance="10"
     gridtolerance="10"
     guidetolerance="10"
     inkscape:pageopacity="0"
     inkscape:pageshadow="2"
     inkscape:window-width="1155"
     inkscape:window-height="752"
     id="namedview62"
     showgrid="false"
     inkscape:zoom="4.5120147"
     inkscape:cx="-9.6300079"
     inkscape:cy="4.7389422"
     inkscape:window-x="2425"
     inkscape:window-y="195"
     inkscape:window-maximized="0"
     inkscape:current-layer="svg60" /><style
     type="text/css"
     id="style2">
	.st0{fill:#FFFFFF;}
</style><path
     inkscape:connector-curvature="0"
     style="fill:#000000;fill-opacity:1"
     id="path4"
     d="m 66,1.8 c 0.8,0.2 1,0.4 1.5,0.6 1.7,0.6 3.1,1.6 4.2,2.9 0.4,-0.1 0.4,-0.4 0.4,-0.6 0.1,-0.3 0,-0.6 0.4,-0.6 0.3,0 0.5,0.3 0.6,0.6 0.1,0.8 0,1.7 -0.4,2.4 -0.2,0.3 -0.5,0.4 -0.8,0.4 -1,0 -2,-0.1 -3,-0.1 C 68.8,7.4 68.7,7.3 68.6,7.3 68.3,7.2 68.1,7 68.1,6.7 c 0,-0.4 0.4,-0.4 0.6,-0.4 0.5,0 1,0.1 1.6,0.1 0.2,0 0.5,0 0.8,0 C 70.6,5.3 69.8,4.7 68.9,4.2 65.1,2 61.4,2.9 58.5,5.6 c -0.3,0.3 -0.7,0.6 -1,0.8 -0.3,0.2 -0.6,0.2 -0.9,0 -0.3,-0.3 0,-0.6 0.2,-0.8 1.4,-1.6 3,-2.7 5,-3.5 1.5,-0.5 3.1,-0.4 4.2,-0.3 z" /><path
     inkscape:connector-curvature="0"
     style="fill:#000000;fill-opacity:1"
     id="path6"
     d="m 58.4,25.3 c 2.1,0.7 4.2,1.2 6.4,1.1 3.3,-0.1 6.5,-0.8 9.2,-2.9 0.3,-0.3 0.8,-0.4 1.1,-0.6 0.2,-0.1 0.5,-0.1 0.6,0.1 0.1,0.2 -0.1,0.4 -0.2,0.5 -0.6,0.8 -1.4,1.3 -2.2,1.8 -5.1,2.8 -10.3,3 -15.7,1 -0.1,0 -0.2,0 -0.2,-0.1 -0.3,0.3 0,0.5 0,0.8 0,0.3 0,0.5 -0.3,0.6 -0.2,0.1 -0.5,0 -0.6,-0.2 -0.4,-0.7 -0.7,-1.5 -0.7,-2.3 0,-0.5 0.4,-0.7 0.8,-0.8 0.6,-0.2 1.2,-0.4 1.8,-0.6 0.4,-0.1 0.7,-0.1 1,0.2 0.3,0.4 -0.1,0.6 -0.4,0.8 -0.2,0.1 -0.5,0.1 -0.6,0.6 z" /><path
     inkscape:connector-curvature="0"
     style="fill:#000000;fill-opacity:1"
     id="path8"
     d="m 29.4,4.4 c 0,-0.2 0.1,-0.3 0.1,-0.3 -0.1,-0.3 -0.3,-0.8 0.1,-0.9 0.5,-0.2 0.7,0.2 0.9,0.6 0.1,0.3 0.2,0.5 0.3,0.8 C 31.2,6 31,6.2 29.6,6.6 29.2,6.7 28.8,6.9 28.4,7 28,7.1 27.6,7.1 27.5,6.7 27.3,6.3 27.7,6.1 28,6 28.2,5.8 28.5,5.7 28.8,5.5 28.3,5 27.6,4.9 27,4.8 22.6,3.7 18.3,4 14.2,6.3 13.6,6.6 13,7 12.6,7.5 12.2,7.8 12,8 11.7,8.1 11.5,8.2 11.2,8.1 11.1,7.9 11,7.7 11.1,7.5 11.2,7.4 11.6,7 11.9,6.6 12.4,6.2 c 4,-2.9 8.5,-3.6 13.3,-2.8 1.2,0.2 2.4,0.6 3.7,1 z" /><path
     inkscape:connector-curvature="0"
     style="fill:#000000;fill-opacity:1"
     id="path10"
     d="m 15,25.2 c 0,0.2 -0.1,0.3 -0.1,0.4 -0.1,0.3 0,0.8 -0.4,0.8 -0.4,0 -0.7,-0.4 -0.7,-0.9 0,-0.3 0,-0.6 0.1,-1 0.2,-1.2 0.3,-1.4 1.6,-1.4 0.8,0 1.5,0 2.3,0 0.2,0 0.5,0 0.7,0.1 0.3,0.1 0.5,0.3 0.4,0.6 -0.1,0.3 -0.3,0.3 -0.6,0.3 -0.5,0 -1,-0.1 -1.6,-0.1 -0.3,0 -0.6,-0.2 -0.7,0.1 -0.1,0.2 0.2,0.4 0.3,0.6 2.3,2.2 4.9,3.3 8.1,2.5 1.6,-0.4 3,-1.3 4.2,-2.4 0.3,-0.3 0.7,-0.6 1,-0.8 0.3,-0.2 0.6,-0.1 0.7,0.1 0.2,0.2 0.1,0.4 -0.1,0.6 -2.2,2.6 -5.9,4.8 -9.9,3.5 -1.8,-0.6 -3.4,-1.3 -4.7,-2.8 0,0.1 -0.2,-0.1 -0.6,-0.2 z" /><path
     inkscape:connector-curvature="0"
     style="fill:#000000;fill-opacity:1"
     id="path12"
     d="m 37.1,25.5 c 2.6,0.5 5,1.1 7.6,0.6 1.1,-0.2 2,-0.7 2.9,-1.4 0.3,-0.2 0.7,-0.6 1,-0.1 0.3,0.4 -0.1,0.7 -0.4,1 -1.9,1.7 -4.2,2.1 -6.6,1.8 -1.4,-0.2 -2.8,-0.3 -4.1,-0.7 -0.5,-0.1 -0.9,-0.2 -0.8,0.5 0,0.2 0,0.3 -0.2,0.4 -0.2,0.1 -0.4,-0.1 -0.5,-0.3 -0.3,-0.6 -0.6,-1.1 -0.9,-1.7 -0.1,-0.2 -0.1,-0.4 0,-0.6 0.5,-0.7 1.2,-1.1 2,-1.4 0.3,-0.1 0.5,0.1 0.7,0.3 0.1,0.2 0,0.5 -0.1,0.7 -0.1,0.3 -0.5,0.4 -0.6,0.9 z" /><path
     inkscape:connector-curvature="0"
     style="fill:#000000;fill-opacity:1"
     id="path14"
     d="M 50,5.3 C 49.9,5.2 49.9,5.1 49.8,5.1 47.5,4.6 45.1,4 42.7,4.4 41.4,4.7 40.2,5.2 39.1,6 38.9,6.2 38.6,6.5 38.3,6.2 37.9,5.8 38.2,5.5 38.4,5.3 39.3,4.3 40.5,3.9 41.8,3.5 43.9,3 45.9,3.3 48,3.6 c 0.4,0.1 0.9,0.2 1.3,0.3 0.6,0.1 1.2,0.5 1.1,-0.6 0,-0.3 0.3,-0.4 0.5,-0.1 0.5,0.5 0.7,1.2 1,1.9 0.1,0.3 0,0.6 -0.3,0.9 -0.5,0.4 -1,0.7 -1.5,1 C 49.8,7 49.5,7 49.2,6.7 49,6.4 49.1,6.1 49.4,5.9 49.6,5.7 49.9,5.6 50,5.3 Z" /><path
     inkscape:connector-curvature="0"
     style="fill:#000000;fill-opacity:1"
     id="path16"
     d="m 55,16.8 c -0.8,0 -1.7,0 -2.6,0 -0.3,0 -0.6,0 -0.8,-0.1 -0.4,-0.1 -0.6,-0.4 -0.6,-0.8 0.1,-0.4 0.5,-0.3 0.8,-0.3 1.1,0 2.1,0.1 3.2,-0.1 0.1,-0.5 -0.6,-1 0,-1.4 0.5,-0.3 0.8,0.3 1.2,0.6 0.4,0.3 0.9,0.6 1.3,0.9 0.6,0.5 0.6,0.8 0.1,1.4 -0.5,0.5 -1,1 -1.5,1.6 -0.3,0.4 -0.7,0.5 -1.1,0.1 -0.4,-0.4 -0.5,-0.8 -0.1,-1.2 0.1,-0.2 0.2,-0.4 0.1,-0.7 z" /><path
     inkscape:connector-curvature="0"
     style="fill:#000000;fill-opacity:1"
     id="path18"
     d="m 23.3,15.2 c 0.8,0.1 1.7,0.1 2.5,0.2 0.2,0 0.5,0 0.7,0.1 0.3,0.1 0.5,0.3 0.5,0.6 0,0.4 -0.4,0.3 -0.6,0.3 -1,0 -2.1,-0.2 -3.1,0.1 -0.1,0.5 0.3,1.1 -0.1,1.3 -0.5,0.2 -0.8,-0.4 -1.2,-0.7 -0.4,-0.3 -0.8,-0.6 -1.2,-0.9 -0.4,-0.3 -0.3,-0.6 0,-0.9 0.5,-0.6 1,-1.1 1.6,-1.6 0.2,-0.3 0.5,-0.6 0.9,-0.3 0.3,0.2 0.5,0.6 0.3,1.1 -0.2,0.2 -0.4,0.5 -0.3,0.7 z" /><polygon
     style="fill:#000000;fill-opacity:1"
     id="polygon20"
     points="22.8,15.3 22.8,15.2 22.8,15.3 "
     class="st0" /><path
     style="fill:#000000;fill-opacity:1"
     d="M 4.0136719 11.857422 C 3.7371094 11.843359 3.4746094 11.900391 3.0996094 11.900391 C 0.79960938 12.800391 0.29921875 16.4 2.1992188 18 C 2.6992187 18.4 3.3 18.699219 4 18.699219 C 5 18.799219 6.1003906 18.099609 6.9003906 19.099609 L 7 19.099609 C 7.3 19.099609 7.7007813 19.200391 7.8007812 18.900391 C 8.0007813 18.500391 7.6003906 18.500781 7.4003906 18.300781 C 6.7003906 17.900781 6.6 17.700391 7 16.900391 C 7.2 16.500391 7.4 15.999609 7.5 15.599609 C 8 14.199609 7.6007812 13.3 6.3007812 12.5 C 5.6007813 12.1 5.0007813 11.800391 4.3007812 11.900391 C 4.2007813 11.875391 4.1058594 11.862109 4.0136719 11.857422 z M 4.5058594 12.716797 C 4.9652344 12.74082 5.4257812 12.899219 5.8007812 13.199219 C 6.2007813 13.699219 6.3007812 14.099609 6.3007812 14.599609 C 6.3007812 15.399609 6.1 16.3 5.5 17 C 4.7 18.1 3.1996094 18.100781 2.5996094 16.800781 C 2.0996094 15.800781 2.0996094 14.699219 2.5996094 13.699219 C 2.9746094 13.011719 3.7402344 12.676758 4.5058594 12.716797 z "
     id="path23" /><path
     d="m 14.2,14.1 c 0,1 0,2 -0.3,3 -0.4,1 -1,1.5 -1.9,1.5 -1,0 -2.1,-0.1 -2.6,-1.3 C 9.1,16.6 8.9,15.8 8.9,15 c 0,-0.8 0,-1.5 0,-2.3 0,-0.3 -0.1,-0.7 0.4,-0.7 0.4,-0.1 0.7,0.2 0.7,0.6 0,0.4 0.1,0.8 0.1,1.2 0,0.8 0,1.7 0.1,2.5 0.1,0.4 0.2,0.8 0.6,1.1 0.8,0.6 1.7,0.4 2,-0.6 C 13,16 13,15.2 13,14.4 c 0,-0.7 0,-1.4 0,-2 0,-0.4 0.2,-0.6 0.6,-0.6 0.4,0 0.6,0.3 0.7,0.7 -0.1,0.5 -0.1,1.1 -0.1,1.6 z"
     id="path25"
     style="fill:#000000;fill-opacity:1"
     inkscape:connector-curvature="0" /><path
     d="m 16.1,15.5 c 0,-0.9 0,-1.8 0,-2.7 0,-0.4 -0.2,-1 0.5,-1 0.6,0 0.6,0.6 0.6,1 0.1,1.5 0.1,2.9 0.1,4.4 0,0.4 0,0.8 0,1.2 0,0.5 -0.4,0.7 -0.8,0.7 -0.5,0 -0.4,-0.5 -0.4,-0.8 -0.1,-1 -0.1,-1.9 0,-2.8 -0.1,0 0,0 0,0 z"
     id="path27"
     style="fill:#000000;fill-opacity:1"
     inkscape:connector-curvature="0" /><path
     style="fill:#000000;fill-opacity:1"
     d="M 63.908203 11.318359 C 62.547852 11.282813 61.388281 12.299219 61.300781 13.699219 C 61.200781 14.499219 61.200781 15.2 61.300781 16 C 61.400781 17.4 62.6 18.400391 64 18.400391 C 64.9 18.400391 65.900781 17.899219 66.800781 18.699219 C 67.100781 18.899219 67.499219 18.700781 67.699219 18.300781 C 67.899219 17.900781 67.399219 17.900781 67.199219 17.800781 C 66.699219 17.600781 66.6 17.300781 67 16.800781 C 67.5 16.300781 67.499609 15.500781 67.599609 14.800781 C 67.599609 14.000781 67.300781 13.3 66.800781 12.5 C 66.200781 11.8 65.3 11.600391 64.5 11.400391 C 64.3 11.350391 64.102539 11.323438 63.908203 11.318359 z M 63.765625 12.431641 C 63.9625 12.444141 64.175391 12.499609 64.400391 12.599609 C 65.900391 13.099609 66.300781 13.6 66.300781 15 C 66.400781 16 65.800391 16.699219 64.900391 17.199219 C 64.100391 17.699219 62.999609 17.400391 62.599609 16.400391 C 62.199609 15.400391 62.2 14.4 62.5 13.5 C 62.725 12.75 63.175 12.394141 63.765625 12.431641 z "
     id="path33" /><path
     style="fill:#000000;fill-opacity:1"
     d="M 78.800781 11.400391 C 76.700781 11.500391 75.6 12.500781 75.5 14.800781 C 75.5 16.800781 76.700781 18.300781 78.300781 18.300781 C 80.200781 18.300781 82.099609 16.600391 82.099609 14.900391 C 82.099609 13.600391 80.700781 11.400391 78.800781 11.400391 z M 78.75 12.300781 C 79.075 12.325781 79.399219 12.449219 79.699219 12.699219 C 80.499219 13.399219 80.899219 14.199219 80.699219 15.199219 C 80.599219 15.699219 80.4 16.2 80 16.5 C 79.4 17 78.700391 17.2 77.900391 17 C 77.100391 16.8 77.000391 16.100391 76.900391 15.400391 C 76.800391 15.300391 76.800781 15.000781 76.800781 14.800781 C 76.800781 13.800781 77.000781 13 77.800781 12.5 C 78.100781 12.35 78.425 12.275781 78.75 12.300781 z "
     id="path35" /><path
     d="m 74.2,14.6 c 0,0.5 -0.1,1 0,1.4 0.3,1.8 -2.3,3.2 -3.7,2.4 -0.7,-0.4 -1.2,-0.9 -1.4,-1.7 -0.3,-1.4 -0.2,-2.9 -0.2,-4.3 0,-0.3 0.1,-0.6 0.4,-0.6 0.4,0 0.6,0.2 0.6,0.6 0.1,0.8 0.1,1.7 0.1,2.5 0,0.5 0,1 0.2,1.5 0.2,0.6 0.6,1 1.3,1.1 0.5,0.1 1.2,-0.6 1.3,-1.2 0.1,-0.6 0,-1.1 0,-1.7 0,-0.7 -0.1,-1.4 -0.1,-2 0,-0.5 0.2,-0.8 0.7,-0.8 0.5,0 0.7,0.3 0.7,0.8 0,0.7 0,1.3 0.1,2 0,0 0,0 0,0 z"
     id="path37"
     style="fill:#000000;fill-opacity:1"
     inkscape:connector-curvature="0" /><path
     style="fill:#000000;fill-opacity:1"
     d="M 45.099609 11.5 C 43.199609 11.5 41.900391 12.800391 41.900391 14.900391 C 41.900391 17.100391 43.200391 18.699219 44.900391 18.699219 C 46.900391 18.699219 48.5 16.599609 48.5 14.599609 C 48.5 12.799609 46.699609 11.5 45.099609 11.5 z M 45.021484 12.552734 C 45.187109 12.555859 45.35 12.574609 45.5 12.599609 C 46.2 12.699609 46.899609 13.000391 47.099609 13.900391 L 47.099609 14.900391 C 47.099609 15.900391 46.700391 16.800391 45.900391 17.400391 C 45.300391 17.900391 44.799219 17.800781 44.199219 17.300781 C 43.199219 16.300781 42.899219 14.399219 43.699219 13.199219 C 43.999219 12.674219 44.524609 12.543359 45.021484 12.552734 z "
     id="path45" /><path
     style="fill:#000000;fill-opacity:1"
     d="M 37.800781 11.261719 C 37.325781 11.274219 36.850391 11.35 36.400391 11.5 C 35.900391 11.6 35.599609 11.999609 35.599609 12.599609 C 35.499609 14.399609 35.9 16.2 36 18 C 36 18.3 36.100391 18.5 36.400391 18.5 C 36.600391 18.5 36.800391 18.299609 36.900391 18.099609 C 37.000391 17.699609 37 17.4 37 17 C 37 15.5 37.100391 15.4 38.400391 15.5 C 38.800391 15.6 38.999219 15.699609 39.199219 16.099609 C 39.399219 16.499609 39.499609 16.900781 39.599609 17.300781 C 39.599609 17.600781 39.799219 17.900781 40.199219 17.800781 C 40.599219 17.700781 40.799219 17.4 40.699219 17 C 40.699219 16.8 40.6 16.500781 40.5 16.300781 C 40.1 15.500781 40.1 14.899609 40.5 14.099609 C 41.2 12.799609 40.599219 11.800391 39.199219 11.400391 C 38.749219 11.300391 38.275781 11.249219 37.800781 11.261719 z M 37.900391 12.300781 C 38.200391 12.300781 38.500781 12.4 38.800781 12.5 C 39.200781 12.7 39.500391 13 39.400391 13.5 C 39.300391 14 39.1 14.400391 38.5 14.400391 C 38.3 14.300391 38.100391 14.400391 37.900391 14.400391 C 36.900391 14.500391 36.900781 14.499609 36.800781 13.599609 C 36.800781 12.499609 36.900391 12.300781 37.900391 12.300781 z "
     id="path47" /><path
     style="fill:#000000;fill-opacity:1"
     d="M 31.480469 11.583984 C 31.192969 11.587109 30.899609 11.624219 30.599609 11.699219 C 29.999609 11.799219 29.800391 12.099609 29.900391 12.599609 C 30.000391 13.299609 29.900391 14.099609 29.900391 15.099609 C 29.900391 15.799609 29.999219 16.8 30.199219 18 C 30.199219 18.2 30.3 18.400391 30.5 18.400391 C 30.7 18.400391 31 18.3 31 18 C 31.1 17.6 31.099609 17.099219 31.099609 16.699219 C 31.099609 16.199219 31.200781 15.900391 31.800781 15.900391 C 32.400781 15.900391 32.999609 15.700391 33.599609 15.400391 C 34.499609 14.800391 34.800391 13.000391 33.900391 12.400391 C 33.150391 11.875391 32.342969 11.574609 31.480469 11.583984 z M 31.859375 12.494141 C 32.663281 12.55293 33.199219 13.100781 33.199219 13.800781 C 33.199219 14.500781 32.700781 14.699219 31.800781 14.699219 C 31.000781 14.699219 31 14.6 31 13.5 C 31.2 13.2 30.7 12.6 31.5 12.5 C 31.625 12.4875 31.744531 12.485742 31.859375 12.494141 z "
     id="path49" /></svg>